<svg width="52" height="34" fill="none" xmlns="http://www.w3.org/2000/svg"><g clip-path="url(#a)" fill="#A9A9A9"><path d="M9.76 4.954h.833c.832.067 1.654.297 2.353.775.832.545 1.425 1.425 1.673 2.39.306 1.196.182 2.487-.258 3.635-.143.411-.287.813-.43 1.215.67-.172 1.33-.488 1.807-1.005.517-.526.785-1.243.957-1.95 1.224-.01 2.448 0 3.663 0-.631 1.673-1.1 3.452-1.062 5.26.01 2.085.775 4.064.976 6.12.153 1.397.105 2.832-.287 4.18a8.094 8.094 0 0 1-1.951 3.386c-.918.956-2.066 1.683-3.3 2.161-1.578.612-3.29.851-4.983.813-2.018-.038-4.055-.497-5.786-1.559-1.492-.908-2.726-2.286-3.347-3.93-.622-1.636-.574-3.53.172-5.117.574-1.244 1.616-2.248 2.84-2.84 1.521-.728 3.252-.919 4.907-.747.23-.602.459-1.205.698-1.807-1.397-.603-2.669-1.588-3.395-2.946-1.12-2.037-.87-4.792.736-6.504.803-.908 1.98-1.444 3.185-1.53zM8.844 9.22c-.278.612-.306 1.358-.01 1.97.325.679.842 1.31 1.54 1.616.143-.325.258-.66.392-.985.2-.526.44-1.042.497-1.607.067-.468 0-.985-.306-1.358-.315-.382-.87-.526-1.339-.373-.354.115-.621.411-.774.737zm3.816 7.144c-.278.755-.574 1.511-.842 2.276.842.392 1.712.804 2.372 1.483a181.325 181.325 0 0 1-1.262 3.165c-.65-.65-1.416-1.195-2.277-1.53-.468 1.234-.918 2.477-1.377 3.71H5.687c.535-1.434 1.061-2.859 1.597-4.293-1.177-.039-2.353.564-2.994 1.559-.268.42-.43.918-.363 1.425.076 1.052.621 2.046 1.434 2.716 1.11.918 2.573 1.3 3.989 1.406 1.166.076 2.371.01 3.48-.364 1.005-.325 1.942-.928 2.593-1.77.86-1.08 1.186-2.514 1.09-3.872-.096-1.043-.344-2.066-.536-3.09-.22-1.157-.401-2.333-.401-3.52a11.7 11.7 0 0 1-2.917.699zM18.522 8.675c1.846-1.406 2.783-2.19 3.376-3.223.841-1.464.335-2.698-.737-3.185-.994-.45-2.18-.029-2.649.956-.459-.975-1.645-1.406-2.649-.956-1.062.487-1.578 1.721-.736 3.185.612 1.032 1.549 1.817 3.395 3.223zM23.428 12.663v-.02c0-1.472 1.147-2.677 2.706-2.677.928 0 1.492.248 2.028.708l-.717.86c-.402-.334-.756-.526-1.349-.526-.822 0-1.482.727-1.482 1.607v.02c0 .946.65 1.635 1.568 1.635.411 0 .784-.106 1.071-.306v-.737h-1.147v-.985h2.247v2.248c-.535.45-1.262.822-2.21.822-1.606.01-2.715-1.119-2.715-2.65zM29.137 13.275v-.02c0-1.128.803-2.056 1.96-2.056 1.32 0 1.932 1.024 1.932 2.152 0 .086-.01.191-.019.297h-2.754c.114.507.468.774.966.774.373 0 .65-.115.956-.401l.64.564c-.372.459-.898.736-1.615.736-1.186 0-2.066-.832-2.066-2.046zm2.792-.326c-.066-.497-.363-.841-.832-.841-.468 0-.765.335-.86.841h1.692zM33.861 11.276h1.12v.564c.258-.335.592-.631 1.157-.631.85 0 1.348.564 1.348 1.473v2.563h-1.119v-2.21c0-.535-.249-.803-.679-.803-.43 0-.698.278-.698.804v2.209h-1.12v-3.97h-.009zM38.272 13.275v-.02c0-1.128.803-2.056 1.96-2.056 1.32 0 1.932 1.024 1.932 2.152 0 .086-.01.191-.02.297h-2.753c.114.507.468.774.965.774.373 0 .65-.115.957-.401l.64.564c-.372.459-.898.736-1.616.736-1.186 0-2.066-.832-2.066-2.046zm2.792-.326c-.067-.497-.363-.841-.832-.841-.468 0-.765.335-.86.841h1.692zM42.986 11.276h1.12v.794c.229-.545.602-.899 1.262-.87v1.176h-.058c-.746 0-1.205.45-1.205 1.397v1.463h-1.119v-3.96zM45.654 14.098v-.02c0-.86.66-1.262 1.597-1.262.402 0 .69.067.966.162v-.066c0-.47-.286-.727-.85-.727-.431 0-.728.076-1.091.21l-.277-.86c.44-.192.86-.316 1.54-.316.611 0 1.051.162 1.338.44.297.296.43.727.43 1.262v2.296h-1.09v-.43c-.277.305-.65.496-1.195.496-.756.03-1.368-.401-1.368-1.185zm2.583-.259v-.2a1.773 1.773 0 0 0-.718-.144c-.478 0-.774.191-.774.545v.02c0 .305.248.477.612.477.526 0 .88-.287.88-.698zM51.431 9.842h-1.118v5.394h1.118V9.842zM23.658 17.196h1.234l1.358 2.18 1.358-2.18h1.224v5.165h-1.128v-3.376l-1.454 2.209h-.029l-1.444-2.18v3.347h-1.119v-5.165zM29.979 16.967h1.185v.995h-1.186v-.995zm.028 1.434h1.12v3.96h-1.12V18.4zM33.355 16.967h-1.119v5.394h1.12v-5.394zM35.584 16.967h-1.12v5.394h1.12v-5.394zM36.33 21.834l.478-.736c.43.306.88.469 1.253.469.325 0 .469-.115.469-.297v-.019c0-.249-.383-.325-.823-.46-.554-.162-1.186-.42-1.186-1.185v-.02c0-.802.65-1.252 1.444-1.252a2.73 2.73 0 0 1 1.473.46l-.43.774c-.392-.23-.784-.373-1.071-.373-.277 0-.411.114-.411.277v.02c0 .22.373.324.803.468.555.182 1.196.45 1.196 1.176v.02c0 .88-.66 1.28-1.512 1.28a2.735 2.735 0 0 1-1.683-.602z"/></g><defs><clipPath id="a"><path fill="#fff" transform="translate(.188)" d="M0 0h51v34H0z"/></clipPath></defs></svg>