<svg width="71" height="34" fill="none" xmlns="http://www.w3.org/2000/svg"><g clip-path="url(#a)"><g clip-path="url(#b)" fill="#A9A9A9"><path d="M18.697 18.473h.653v12.85h-2.473v-11.29c0-.367.793-1.56 1.82-1.56zM32.225 21.319c-1.213 0-2.146.505-2.799 1.514v-4.36h-.28c-1.213 0-1.866.643-2.192 1.193v-.091 7.389c0 2.891 1.54 4.36 4.618 4.36 3.08-.046 4.572-1.698 4.572-4.91 0-3.351-1.306-5.004-3.919-5.095zm-.746 7.894c-1.4 0-2.1-1.01-2.053-2.938.094-1.881.747-2.8 2.1-2.8 1.352 0 2.006.919 2.099 2.8 0 1.974-.747 2.938-2.146 2.938zM37.59 26.275c.093-3.12 1.633-4.865 4.945-4.865h.747v2.525h-1.167c-1.4 0-2.006.872-2.006 2.295v5.048H37.59v-5.003zM47.2 28.8c.42.367.98.55 1.726.55.513 0 .98-.137 1.353-.413.373-.275.606-.55.7-.826h2.332c-.373 1.148-.933 1.928-1.726 2.433-.793.505-1.68.734-2.799.734a5.824 5.824 0 0 1-2.052-.367 4.463 4.463 0 0 1-1.54-1.01 4.938 4.938 0 0 1-.98-1.56c-.233-.597-.326-1.285-.326-2.02 0-.688.14-1.377.373-1.973.233-.597.56-1.148.98-1.56.42-.46.933-.781 1.54-1.056.606-.276 1.259-.367 2.005-.367.793 0 1.54.137 2.146.458.607.322 1.12.735 1.493 1.24.373.504.653 1.101.84 1.79.186.642.233 1.376.186 2.11h-6.95c.093.873.326 1.47.7 1.837zm2.986-4.957c-.327-.321-.793-.505-1.447-.505-.42 0-.792.092-1.072.23-.28.137-.514.32-.654.504-.186.23-.28.413-.373.643-.093.23-.093.459-.14.642h4.292c-.047-.688-.28-1.193-.606-1.514zM24.481 18.473H22.01v2.203h2.472v-2.203zM24.481 21.778H22.01v9.5h2.472v-9.5zM67.12 13.379a2.2 2.2 0 0 1-1.68.734 2.2 2.2 0 0 1-1.679-.734c-.42-.46-.56-1.24-.56-2.157 0-.964.187-1.653.56-2.112a2.2 2.2 0 0 1 1.68-.734c.7 0 1.26.275 1.679.734.42.46.56 1.24.56 2.112 0 .872-.14 1.606-.56 2.157zm1.96-5.691c-.747-.964-2.007-1.515-3.64-1.515-1.586 0-2.892.459-3.638 1.515-.747.963-1.213 2.157-1.213 3.488 0 1.377.42 2.57 1.213 3.488.746.963 2.006 1.468 3.639 1.468 1.586 0 2.892-.459 3.638-1.468.747-.964 1.213-2.157 1.213-3.488.047-1.285-.373-2.479-1.213-3.488zM56.95 13.379c-.327.459-.886.734-1.586.734-.7 0-1.26-.275-1.54-.734-.326-.551-.466-1.24-.466-2.157 0-.826.14-1.47.467-1.974.326-.55.84-.826 1.586-.826.466 0 .886.138 1.26.413.559.459.886 1.377.886 2.57-.14.826-.234 1.515-.607 1.974zm2.892-10.006s-2.519-.275-2.519 1.699v2.616c-.28-.413-.606-.735-1.12-1.056-.42-.275-.979-.321-1.539-.321-1.26 0-2.24.459-3.032 1.377-.746.872-1.12 2.203-1.12 3.855 0 1.377.327 2.57 1.12 3.35.746.872 2.24 1.24 3.545 1.24 4.619 0 4.525-3.856 4.525-3.856l.14-8.904zM47.433 12.231c0 .826-.28 1.377-.7 1.698-.466.276-.979.46-1.492.46-.327 0-.607-.046-.84-.276-.233-.23-.326-.459-.326-.872 0-.459.186-.826.56-1.056.186-.137.606-.275 1.119-.32l.56-.139c.28-.046.466-.137.7-.137.14-.046.326-.138.466-.184l-.047.826zm1.26-5.37c-.84-.413-1.726-.596-2.799-.596-1.586 0-2.752.413-3.406 1.24-.42.55-.606 1.192-.7 1.973h2.38c.047-.322.187-.597.326-.827.28-.275.7-.413 1.26-.413s.886.046 1.213.184c.28.138.42.413.42.826 0 .321-.187.55-.56.688-.187.046-.56.138-.98.184l-.84.046c-.98.138-1.679.321-2.192.597-.886.459-1.353 1.377-1.353 2.478 0 .872.28 1.56.84 2.065.56.46 1.26.689 2.146.735 5.458.183 5.411-2.846 5.411-3.443V9.11c.047-1.01-.326-1.835-1.166-2.248zM36.33 8.376c.607 0 1.074.184 1.4.55.187.276.327.597.327.965h2.659c-.14-1.331-.607-2.295-1.4-2.754-.746-.55-1.82-.734-3.079-.734-1.493 0-2.659.413-3.498 1.33-.84.918-1.26 2.158-1.26 3.718 0 1.469.326 2.57 1.12 3.442.746.872 1.959 1.331 3.545 1.331 1.586 0 2.799-.55 3.639-1.56.466-.689.746-1.377.84-2.157h-2.66c-.046.459-.186.872-.466 1.193-.28.275-.7.459-1.353.459-.84 0-1.493-.413-1.726-1.193a5.062 5.062 0 0 1-.28-1.653c0-.688.047-1.33.28-1.698.42-.826.98-1.239 1.913-1.239zM30.78 6.31c-5.552 0-5.179 4.82-5.179 4.82v4.865h2.52V11.45c0-.734.046-1.33.28-1.652.326-.597.979-.964 2.005-.964h.28c.14 0 .28 0 .42.046V6.403h-.187c-.046-.092-.046-.092-.14-.092zM18.277 8.835c.326-.321.84-.55 1.493-.55.56 0 1.073.137 1.492.458.42.321.607.826.607 1.469h-4.292c.14-.55.327-1.01.7-1.377zm3.359 4.544a.56.56 0 0 1-.327.321c-.326.275-.84.321-1.4.321-.56 0-.979-.046-1.352-.321-.607-.321-.98-1.056-.98-1.928h6.904c0-.826 0-1.468-.046-1.836-.14-.734-.327-1.376-.747-1.927-.42-.597-.98-1.102-1.586-1.377-.606-.275-1.4-.413-2.239-.413-1.4 0-2.52.413-3.359 1.33-.84.873-1.353 2.112-1.353 3.718 0 1.699.467 2.984 1.493 3.718.98.734 2.1 1.193 3.359 1.193 1.54 0 2.752-.459 3.545-1.377.467-.459.747-.963.84-1.468l-2.752.046zM14.078 15.949h-2.332v-5.645c0-.551-.14-1.699-1.68-1.699-.98 0-1.726.689-1.726 1.699v5.645H6.008v-5.645c0-.551-.14-1.699-1.68-1.699-.98 0-1.68.689-1.68 1.699v5.645H.317v-5.6c0-2.34 1.54-4.13 3.966-4.13 1.213 0 2.192.459 2.892 1.33.7-.825 1.68-1.33 2.892-1.33 2.52 0 3.966 1.698 3.966 4.13l.046 5.6z"/></g></g><defs><clipPath id="a"><path fill="#fff" transform="translate(.188)" d="M0 0h70.125v34H0z"/></clipPath><clipPath id="b"><path fill="#fff" transform="translate(.188 2.833)" d="M0 0h70.125v29.042H0z"/></clipPath></defs></svg>